<!-- Generated by IcoMoon.io -->
<svg id="chat" version="1.1" xmlns="http://www.w3.org/2000/svg" width="28" height="24" viewBox="0 0 28 24">
  <path d="M27.273 20.727l-5.465 0.011c0 1.047 0 2.705-0.022 2.847-0.044 0.284-0.742 0.556-1.047 0.327-0.764-0.633-1.102-1.309-2.258-3.185h-5.389c-0.905 0-1.069-0.349-1.069-1.255v-0.949l1.124 0.033-0.044 1.069 6.469 0.011 1.156 2.182v-2.182h6.545v-9.796h-6.567v-1.069h6.022c0.905 0 1.636 0.36 1.636 1.265v9.436c0 0.905-0.185 1.255-1.091 1.255zM12.022 18.524h-1.767c-0.764 0.655-2.16 1.887-2.913 2.509-0.305 0.251-0.971-0.033-1.015-0.305-0.014-0.382-0.023-0.83-0.023-1.28 0-0.325 0.004-0.648 0.013-0.971l-0.001 0.048h-5.105c-0.895 0-1.222-0.327-1.222-1.233v-16.091c0-0.905 0.153-1.2 1.058-1.2h18.524c0.905 0 1.124 0.262 1.124 1.167v15.436c0 0.905-0.829 1.92-1.745 1.92h-6.938c-0.098 0-0.109 0 0 0zM19.593 17.433l0.033-16.309h-18.535v16.309h6.491l0.011 2.138 2.204-2.138zM5.084 12.633v-0.044c0-0.305 0.251-0.6 0.545-0.6h9.895c0.316 0 0.556 0.305 0.556 0.622v0.022c0 0.316-0.24 0.491-0.545 0.491h-9.895c-0.305 0-0.556-0.175-0.556-0.491zM13.080 6.578h-7.44c-0.305 0-0.556-0.175-0.556-0.48v-0.044c0-0.316 0.251-0.6 0.545-0.6h7.462c0.305 0 0.545 0.305 0.545 0.611v0.033c0 0.305-0.24 0.48-0.545 0.48zM5.64 8.738h4.985c0.305 0 0.556 0.273 0.556 0.589v0.022c0 0.305-0.251 0.48-0.545 0.48h-4.996c-0.305 0-0.556-0.175-0.556-0.48v-0.044c0-0.316 0.251-0.567 0.545-0.567z"></path>
</svg>
