<!-- Generated by IcoMoon.io -->
<svg id="companies" version="1.1" xmlns="http://www.w3.org/2000/svg" width="21" height="24" viewBox="0 0 21 24">
  <path d="M9.5 24h-8c-0.828 0-1.5-0.672-1.5-1.5v0-21c0-0.83 0.67-1.5 1.5-1.5h8c0.83 0 1.5 0.67 1.5 1.5v4.5h8.5c0.83 0 1.5 0.67 1.5 1.5v15c0 0.83-0.67 1.5-1.5 1.5h-10zM1.5 1c-0.276 0-0.5 0.224-0.5 0.5v0 21c0 0.28 0.22 0.5 0.5 0.5h8c0.276 0 0.5-0.224 0.5-0.5v0-21c0-0.276-0.224-0.5-0.5-0.5v0zM7 7h-3v-3h3zM7 13.5h-3v-3h3zM7 20h-3v-3h3zM11.5 7c-0.276 0-0.5 0.224-0.5 0.5v0 15c0 0.28 0.22 0.5 0.5 0.5h8c0.276 0 0.5-0.224 0.5-0.5v0-15c0-0.276-0.224-0.5-0.5-0.5v0zM17 13.5h-3v-3h3zM17 20h-3v-3h3z"></path>
</svg>
