<!-- Generated by IcoMoon.io -->
<svg id="feed" version="1.1" xmlns="http://www.w3.org/2000/svg" width="25" height="24" viewBox="0 0 25 24">
  <path d="M20.87 13.983v9.308c0 0.386-0.313 0.71-0.699 0.71h-4.831c-0.417 0-0.73-0.323-0.73-0.71v-4.383h-4.163v4.383c0 0.386-0.313 0.71-0.699 0.71h-4.904c-0.383-0.012-0.689-0.325-0.689-0.709 0-0 0-0 0-0v0-9.391c0-0.386 0.25-0.637 0.626-0.637 0.417 0 0.417 0.25 0.417 0.637v9.037h4.163v-4.539c0-0.386 0.334-0.73 0.73-0.73h4.863c0.39 0.017 0.699 0.337 0.699 0.73 0 0 0 0 0 0.001v-0 4.539h4.174v-8.953c0-0.417 0.198-0.741 0.605-0.741 0.376 0 0.449 0.313 0.449 0.73zM24.595 13.148c-0.146 0.125-0.157 0.052-0.355 0.052-0.23 0-0.449-0.177-0.563-0.292l-11.155-11.812-10.717 11.447c-0.282 0.282-0.866 0.887-1.137 0.574-0.303-0.261-0.751-0.543-0.47-0.835l11.843-12.052c0.146-0.146 0.313-0.23 0.522-0.23 0.167 0 0.334 0.073 0.48 0.23l4.675 4.769v-3.099c0-0.417 0.167-0.626 0.553-0.626 0.417 0 0.522 0.188 0.522 0.605v4.383l6.125 6.104c0.282 0.292-0.063 0.522-0.313 0.783z"></path>
</svg>
