<svg version="1.1" id="help" xmlns="http://www.w3.org/2000/svg" xmlns:xlink="http://www.w3.org/1999/xlink" x="0px" y="0px" width="20px" height="20px" viewBox="0 0 20 20" enable-background="new 0 0 20 20" xml:space="preserve">
<path d="M10,20C4.477,20,0,15.523,0,10S4.477,0,10,0
  c5.522,0,10,4.477,10,10S15.522,20,10,20z M10,1c-4.971,0-9,4.029-9,9s4.029,9,9,9s9-4.029,9-9S14.971,1,10,1z M11,13h-1
  c0-3.469,2.938-4.156,3-5s0.281-2.969-3-3S7,8,7,8H6l0.041-0.4c0,0-0.656-3.6,3.936-3.6c4.592,0,4.1,2.941,4.023,4
  C13.836,10.277,11,9.801,11,13z M10.594,15H11v1h-1v-1h0.257H10.594z"></path>
</svg>
