<!-- Generated by IcoMoon.io -->
<svg id="notifications" version="1.1" xmlns="http://www.w3.org/2000/svg" width="24" height="24" viewBox="0 0 24 24">
  <path d="M23.92 20.68c-0.12 0.222-0.352 0.37-0.618 0.37-0.008 0-0.016-0-0.024-0l0.001 0h-22.54c-0.007 0-0.015 0-0.022 0-0.266 0-0.497-0.148-0.616-0.367l-0.002-0.004c-0.070-0.12-0.1-0.38-0.1-0.5 0.008-0.152 0.063-0.291 0.151-0.401l-0.001 0.001c0.864-1.256 1.579-2.705 2.068-4.254l0.032-0.116c0.49-1.54 1.37-3.5 1.75-6.41 0.22-1.7 0.47-3.39 1.24-4.3 1.059-1.219 2.454-2.119 4.042-2.556l0.058-0.014c0.13-0.61 0.44-1.12 0.94-1.52s1.080-0.6 1.72-0.6c0.65 0 1.22 0.2 1.73 0.6 0.5 0.4 0.82 0.9 0.95 1.51 1.643 0.455 3.035 1.358 4.081 2.569l0.009 0.011c0.897 1.112 1.507 2.491 1.696 4.001l0.004 0.039c0.38 2.91 0.8 5.14 1.28 6.67 0.524 1.725 1.246 3.228 2.159 4.592l-0.039-0.062c0.090 0.12 0.13 0.25 0.13 0.39 0 0.11-0.020 0.23-0.080 0.35zM20.17 15.090c-0.42-1.56-0.8-3.62-1.16-6.17-0.162-1.305-0.678-2.466-1.45-3.412l0.010 0.012c-0.975-1.039-2.248-1.788-3.682-2.111l-0.048-0.009c-0.322-0.075-0.559-0.36-0.56-0.7v-0.020c0-0.69-0.56-1.24-1.28-1.24-0.7 0-1.29 0.55-1.29 1.24v0.030c0 0 0 0.001 0 0.001 0 0.326-0.223 0.6-0.525 0.678l-0.005 0.001c-0.9 0.2-1.68 0.5-2.58 1.1-1.448 0.999-2.429 2.585-2.598 4.406l-0.002 0.024c-0.321 2.428-0.727 4.524-1.244 6.575l0.084-0.395c-0.454 1.86-1.085 3.493-1.896 5.015l0.056-0.115h20c-0.746-1.409-1.374-3.044-1.799-4.76l-0.031-0.15zM13.51 23.37c-0.41 0.42-0.9 0.64-1.5 0.64-0.59 0-1.090-0.21-1.52-0.64-0.42-0.4-0.62-0.9-0.62-1.48h4.26c0 0.58-0.21 1.070-0.62 1.48z"></path>
</svg>
