<!-- Generated by IcoMoon.io -->
<svg id="services" version="1.1" xmlns="http://www.w3.org/2000/svg" width="19" height="24" viewBox="0 0 19 24">
  <path d="M17.5 24h-16c-0.828 0-1.5-0.672-1.5-1.5v0-21c0-0.83 0.67-1.5 1.5-1.5h16c0.83 0 1.5 0.67 1.5 1.5v21c0 0.83-0.67 1.5-1.5 1.5zM1.5 1c-0.276 0-0.5 0.224-0.5 0.5v0 21c0 0.28 0.22 0.5 0.5 0.5h16c0.276 0 0.5-0.224 0.5-0.5v0-21c0-0.276-0.224-0.5-0.5-0.5v0zM16 9h-13v-2h13zM16 5h-9v-2h9zM16 21h-13v-2h13zM16 17h-13v-2h13zM16 13h-13v-2h13z"></path>
</svg>
