<svg version="1.1" id="settings" xmlns="http://www.w3.org/2000/svg" xmlns:xlink="http://www.w3.org/1999/xlink" x="0px" y="0px" width="19px" height="20px" viewBox="0 0 19 20" enable-background="new 0 0 19.551 20" xml:space="preserve">
<path d="M17.741,9.321c0.02,0.224,0.034,0.45,0.034,0.679 s-0.015,0.455-0.034,0.679l0.917,0.72l0.892,0.7c-0.075,0.349-0.166,0.696-0.279,1.04l-0.023-0.018
  c-0.21,0.64-0.462,1.272-0.813,1.879c-0.35,0.607-0.771,1.142-1.221,1.643l0.027,0.011c-0.241,0.271-0.496,0.522-0.76,0.762
  l-1.052-0.423l-1.118-0.449c-0.181,0.126-0.341,0.271-0.536,0.384s-0.4,0.178-0.6,0.272l-0.17,1.193l-0.16,1.123
  c-0.34,0.109-0.686,0.205-1.04,0.278l0.004-0.029C11.15,19.903,10.476,20,9.775,20c-0.701,0-1.375-0.097-2.034-0.236l0.004,0.029
  c-0.354-0.073-0.7-0.168-1.04-0.278l-0.16-1.123L6.375,17.2c-0.2-0.094-0.406-0.16-0.6-0.272S5.42,16.671,5.24,16.544l-1.118,0.449
  l-1.052,0.423c-0.265-0.24-0.52-0.491-0.76-0.762l0.027-0.011C1.887,16.142,1.465,15.607,1.115,15
  c-0.351-0.607-0.603-1.239-0.813-1.879l-0.023,0.018C0.166,12.796,0.075,12.448,0,12.1l0.892-0.7l0.917-0.72
  C1.79,10.455,1.775,10.229,1.775,10S1.79,9.545,1.81,9.321l-0.917-0.72L0,7.9c0.075-0.349,0.166-0.696,0.279-1.039l0.023,0.018
  C0.512,6.239,0.765,5.607,1.115,5c0.35-0.607,0.771-1.142,1.221-1.643L2.309,3.346c0.24-0.27,0.496-0.522,0.76-0.761l1.052,0.423
  L5.24,3.456C5.42,3.33,5.581,3.184,5.775,3.072s0.4-0.178,0.6-0.272l0.17-1.193l0.16-1.123c0.34-0.109,0.686-0.205,1.04-0.278
  L7.742,0.236C8.401,0.098,9.075,0,9.775,0c0.7,0,1.375,0.098,2.034,0.236l-0.004-0.029c0.354,0.073,0.7,0.168,1.04,0.278l0.16,1.123
  l0.17,1.193c0.2,0.094,0.406,0.16,0.6,0.272s0.354,0.258,0.536,0.384l1.118-0.449l1.052-0.423c0.265,0.24,0.52,0.491,0.76,0.761
  l-0.027,0.011C17.664,3.858,18.085,4.393,18.436,5c0.351,0.607,0.603,1.239,0.813,1.879l0.023-0.018
  c0.114,0.344,0.204,0.69,0.279,1.039l-0.892,0.7L17.741,9.321z M17.569,5.5c-0.377-0.654-0.832-1.232-1.336-1.75l-1.875,0.752
  l-0.143,0.112c-0.016-0.013-0.034-0.022-0.049-0.035l-0.008,0.003c-0.58-0.469-1.224-0.852-1.935-1.119
  c-0.002-0.001-0.004-0.002-0.006-0.003l0.026-0.18l-0.286-1.999C11.259,1.105,10.53,1,9.775,1S8.292,1.105,7.592,1.283L7.307,3.282
  l0.026,0.18c-0.002,0-0.004,0.002-0.006,0.003c-0.71,0.266-1.355,0.649-1.935,1.119L5.384,4.58C5.368,4.593,5.35,4.603,5.334,4.615
  L5.191,4.503L3.317,3.75C2.813,4.268,2.358,4.846,1.981,5.5C1.604,6.154,1.33,6.837,1.134,7.532l1.588,1.247l0.169,0.068l0,0
  C2.889,8.866,2.887,8.886,2.883,8.905l0.002,0.002C2.829,9.265,2.775,9.625,2.775,10s0.054,0.735,0.11,1.093l-0.002,0.002
  c0.003,0.019,0.005,0.039,0.008,0.058l0,0l-0.169,0.068l-1.588,1.247c0.196,0.695,0.469,1.378,0.847,2.032
  c0.377,0.654,0.832,1.232,1.336,1.75l1.874-0.752l0.143-0.112c0.016,0.013,0.034,0.023,0.049,0.035l0.008-0.003
  c0.58,0.469,1.224,0.852,1.935,1.119c0.002,0.001,0.004,0.002,0.006,0.002l-0.026,0.18l0.286,1.999C8.292,18.896,9.021,19,9.775,19
  s1.483-0.104,2.183-0.282l0.286-1.999l-0.026-0.18c0.002,0,0.004-0.001,0.006-0.002c0.711-0.267,1.355-0.649,1.935-1.119
  l0.008,0.003c0.016-0.013,0.034-0.023,0.049-0.035l0.143,0.112l1.875,0.752c0.504-0.517,0.958-1.095,1.336-1.75
  c0.378-0.654,0.651-1.337,0.847-2.032l-1.588-1.247l-0.169-0.068l0,0c0.003-0.019,0.005-0.039,0.008-0.058l-0.002-0.002
  c0.057-0.358,0.11-0.719,0.11-1.093s-0.054-0.735-0.11-1.093l0.002-0.002c-0.003-0.019-0.005-0.039-0.008-0.058l0,0l0.169-0.068
  l1.588-1.247C18.221,6.837,17.947,6.154,17.569,5.5z M9.775,14c-2.209,0-4-1.791-4-4s1.791-4,4-4s4,1.791,4,4S11.984,14,9.775,14z
   M9.775,7c-1.657,0-3,1.343-3,3c0,1.657,1.343,3,3,3c1.657,0,3-1.343,3-3C12.775,8.343,11.432,7,9.775,7z"></path>
</svg>
