<svg version="1.1" id="signout" xmlns="http://www.w3.org/2000/svg" xmlns:xlink="http://www.w3.org/1999/xlink" x="0px" y="0px" width="21px" height="20px" viewBox="0 0 21 20" enable-background="new 0 0 21 20" xml:space="preserve">
<path d="M20.93,10.679L16,15h-0.32l-0.011,0.01L15.66,15H15v-0.783
  l-0.008-0.009L15,14.201V12h-1l0,0h-1H5v-1V9V8h8h1h1V5.799l-0.008-0.007L15,5.783V5h0.66l0.008-0.01L15.68,5H16l4.93,4.321
  L21,9.263v1.473L20.93,10.679z M16,6.622V9h-1h-1l0,0h-1H6v2h7h1l0,0h1h1v2.378L20.105,10L16,6.622z M13,3c0-1.104-0.896-2-2-2H3
  C1.896,1,1,1.896,1,3v14c0,1.104,0.896,2,2,2h8c1.104,0,2-0.896,2-2v-4h1v5c0,1.104-0.896,2-2,2H2c-1.104,0-2-0.896-2-2V2
  c0-1.104,0.896-2,2-2h10c1.104,0,2,0.896,2,2v5h-1V3z"></path>
</svg>
