<svg version="1.1" id="support" xmlns="http://www.w3.org/2000/svg" xmlns:xlink="http://www.w3.org/1999/xlink" x="0px" y="0px" width="18px" height="21px" viewBox="0 0 18 21" enable-background="new 0 0 18 21" xml:space="preserve">
<path d="M16,13h-2V6h0.927C14.681,4.294,13.61,1,9,1S3.319,4.294,3.073,6H4
  v7H2c-1.104,0-2-0.896-2-2V8c0-1.104,0.896-2,2-2h0.056C2.283,4.069,3.42,0,9,0s6.717,4.069,6.944,6H16c1.104,0,2,0.896,2,2v3
  C18,12.104,17.104,13,16,13z M1,8v3c0,0.552,0.448,1,1,1h1V7H2C1.448,7,1,7.448,1,8z M17,8c0-0.552-0.448-1-1-1h-1v5h1
  c0.552,0,1-0.448,1-1V8z M12,20v-1c3.375-0.344,3-6,3-6h1C16,13,16.375,20.063,12,20z M8,18h3c0.552,0,1,0.448,1,1v1
  c0,0.552-0.448,1-1,1H8c-0.552,0-1-0.448-1-1v-1C7,18.448,7.448,18,8,18z M8,20h3v-1H8V20z"></path>
</svg>
